<svg xmlns="http://www.w3.org/2000/svg" fill="none" viewBox="0 0 96 96">
  <rect width="96" height="96" fill="#0a0a0a" rx="19.2"/>
  <g fill="#fff" clip-path="url(#a)">
    <path d="m30.672 65.951 13.252-34.692h9.373l13.252 34.692h-9.05l-3.125-7.865H42.792l-3.07 7.865h-9.05Zm13.305-14.276h9.212L48.555 39.61l-4.578 12.066Z"/>
    <path fill-opacity=".4" fill-rule="evenodd" d="M28.718 63.058c.225.003.566-.026.759-.064.233-.046 1.91-.97 5.023-2.77 2.57-1.486 4.705-2.692 4.744-2.681.04.01.673 1.066 1.41 2.346 1.206 2.096 1.367 2.339 1.627 2.467.25.122.499.132 1.803.07 1.087-.05 1.586-.11 1.767-.21.193-.106.441-.432 1.036-1.358.799-1.245.917-1.503.873-1.905-.014-.126-.359-.814-.765-1.529l-.741-1.3 11.148-6.468c6.131-3.558 11.203-6.533 11.271-6.61.162-.184 2.601-7.074 2.622-7.405.022-.327-.292-.872-.585-1.017-.296-.148-7.46-1.47-7.7-1.423-.1.02-5.202 2.945-11.337 6.497l-11.156 6.46-.722-1.244c-.397-.684-.785-1.3-.861-1.37-.278-.255-.743-.301-2.141-.215-.765.047-1.484.116-1.598.152-.292.095-.508.368-1.3 1.649-.558.903-.7 1.184-.716 1.42-.016.251.166.616 1.306 2.607.729 1.274 1.317 2.348 1.308 2.387-.01.039-2.118 1.291-4.685 2.782-3.088 1.795-4.746 2.804-4.899 2.981a3.53 3.53 0 0 0-.773 3.065c.108.486.591 1.347.956 1.7.626.606 1.502.977 2.326.986Zm-.693-2.555c-.429-.339-.533-.968-.243-1.45.094-.159.38-.38.792-.618l.644-.37.556.966.555.966-.597.355c-.833.495-1.227.53-1.707.15Zm4.1-4.126.985-.573.559.968.558.967-.984.573-.985.573-.559-.968-.558-.967.985-.573Zm7.373-2.974-3.86-6.729.316-.508.317-.507.648-.03.649-.028 3.872 6.733 3.873 6.732-.331.514-.332.513-.57.034a6.714 6.714 0 0 1-.645.02c-.042-.008-1.812-3.043-3.937-6.744Zm-3.918 2.23-.541-.943.984-.571.983-.57.557.967.557.967-.96.559c-.53.307-.979.553-1 .548-.022-.006-.282-.436-.58-.956Zm8.93-2.53-.541-.945 9.378-5.437c7.75-4.493 9.398-5.477 9.494-5.673.362-.736-.081-1.601-.874-1.707-.356-.046-.407-.018-9.75 5.393l-9.394 5.44-.568-.993-.57-.992 10.906-6.32 10.904-6.321 2.525.466c1.388.256 2.54.492 2.557.524.019.032-.353 1.15-.826 2.486l-.86 2.427-10.882 6.309c-5.984 3.47-10.899 6.304-10.92 6.298-.02-.006-.281-.436-.58-.955Z" clip-rule="evenodd"/>
    <path d="M15 14.906h3.631V81H15V14.906Zm62.462 0h3.632V81h-3.632V14.906Z"/>
    <path d="M15 14.906h66.094v3.632H15v-3.632Zm0 62.462h66.094V81H15v-3.632Z"/>
  </g>
  <defs>
    <clipPath id="a">
      <path fill="#fff" d="M15 14.906h66.094V81H15z"/>
    </clipPath>
  </defs>
</svg>
