<svg xmlns="http://www.w3.org/2000/svg" fill="none" viewBox="0 0 200 200">
  <mask id="a" width="200" height="200" x="0" y="0" maskUnits="userSpaceOnUse" style="mask-type:alpha">
    <path fill="#282828" d="M0 0h200v200H0z"/>
  </mask>
  <g fill="#222" mask="url(#a)">
    <path d="m79.973 75-.104.001a1.935 1.935 0 1 0 .428 3.832l6.169 6.984-5.373 4.747 2.58 2.92c1.033-2.28 2.373-4.212 3.992-5.83l.737 3.86a53.002 53.002 0 0 1 7.932-1.372l-2.55-2.888-4.124-1.331c1.826-1.376 3.918-2.45 6.252-3.25l-2.58-2.922-5.372 4.746-6.178-6.993A1.932 1.932 0 0 0 79.973 75Zm41.002 0a1.93 1.93 0 0 0-1.809 2.504l-6.178 6.994-5.373-4.747-2.58 2.921c2.335.8 4.427 1.875 6.253 3.25l-4.124 1.332-2.48 2.808c2.636.199 5.266.609 7.906 1.222l.693-3.63c1.618 1.618 2.959 3.55 3.992 5.83l2.58-2.92-5.373-4.747 6.169-6.984a1.932 1.932 0 0 0 1.643-3.348 1.925 1.925 0 0 0-1.319-.485ZM101.09 91.909c-4.22-.01-8.477.557-12.867 1.716-.219 9.648 3.678 22.331 12.636 27.723 8.671-5.24 13.056-18.122 12.859-27.723-4.24-1.12-8.417-1.706-12.628-1.716ZM88.591 108.28l-9.265 10.489-1.301 6.815 6.602-2.133 7.306-8.27c-1.372-2.145-2.48-4.483-3.342-6.901Zm24.341.651c-.927 2.372-2.088 4.655-3.488 6.735l6.877 7.785 6.602 2.133-1.301-6.815-8.69-9.838ZM-1.781-23c-2.548.231-5.035.836-7.312 1.834 1.5 3.2 1.389 6.514-.657 8.048-2.034 1.525-5.278.778-7.922-1.532a23.18 23.18 0 0 0-3.796 6.408c3.303 1.205 5.53 3.679 5.17 6.201C-16.66.482-19.491 2.231-23 2.461c.228 2.519.87 4.959 1.85 7.214 1.739-.799 3.495-1.083 4.99-.873 1.272.183 2.336.685 3.042 1.627 1.544 2.06.742 5.343-1.639 8.005 1.906 1.597 4.123 2.875 6.503 3.811 1.204-3.303 3.678-5.53 6.201-5.17 2.524.362 4.272 3.194 4.502 6.702 2.547-.23 5.035-.835 7.312-1.834-1.54-3.222-1.393-6.6.668-8.145.941-.706 2.204-.88 3.476-.696 1.476.211 3.046 1.001 4.45 2.225a23.499 23.499 0 0 0 3.796-6.406c-3.304-1.204-5.53-3.677-5.17-6.2.361-2.525 3.19-4.275 6.699-4.505a23.213 23.213 0 0 0-1.846-7.214c-3.185 1.476-6.51 1.283-8.036-.751-1.533-2.045-.708-5.26 1.63-7.91-1.906-1.597-4.126-2.876-6.506-3.812-1.205 3.303-3.678 5.533-6.202 5.173C.196-16.66-1.55-19.491-1.78-23Zm2.115 9.29c7.776 0 14.099 6.323 14.099 14.099S8.11 14.488.333 14.488c-7.775 0-14.098-6.323-14.098-14.1 0-7.775 6.323-14.098 14.099-14.098Zm0 1.825A12.26 12.26 0 0 0-11.94.389 12.26 12.26 0 0 0 .334 12.663 12.26 12.26 0 0 0 12.608.39 12.26 12.26 0 0 0 .334-11.885Zm.003 1.477c5.966 0 10.803 4.837 10.803 10.803 0 5.966-4.837 10.803-10.803 10.803-5.966 0-10.803-4.837-10.803-10.803 0-5.967 4.837-10.803 10.803-10.803ZM-1.781 177c-2.548.231-5.035.836-7.312 1.834 1.5 3.2 1.389 6.514-.657 8.048-2.034 1.525-5.278.778-7.922-1.532a23.178 23.178 0 0 0-3.796 6.408c3.303 1.205 5.53 3.679 5.17 6.201-.361 2.523-3.193 4.272-6.702 4.502.228 2.519.87 4.959 1.85 7.214 1.739-.799 3.495-1.083 4.99-.873 1.272.183 2.336.685 3.042 1.627 1.544 2.06.742 5.343-1.639 8.005 1.906 1.597 4.123 2.875 6.503 3.811 1.204-3.303 3.678-5.53 6.201-5.169 2.524.361 4.272 3.193 4.502 6.701 2.547-.231 5.035-.835 7.312-1.834-1.54-3.222-1.393-6.6.668-8.145.941-.706 2.204-.881 3.476-.696 1.476.211 3.046 1.001 4.45 2.225a23.496 23.496 0 0 0 3.796-6.406c-3.304-1.204-5.53-3.677-5.17-6.201.361-2.524 3.19-4.274 6.699-4.504a23.203 23.203 0 0 0-1.846-7.214c-3.185 1.476-6.51 1.283-8.036-.751-1.533-2.045-.708-5.26 1.63-7.91-1.906-1.597-4.126-2.876-6.506-3.812-1.205 3.304-3.678 5.533-6.202 5.173-2.524-.361-4.271-3.193-4.501-6.702Zm2.115 9.29c7.776 0 14.099 6.323 14.099 14.099S8.11 214.488.333 214.488c-7.775 0-14.098-6.323-14.098-14.099S-7.442 186.29.334 186.29Zm0 1.825a12.26 12.26 0 0 0-12.274 12.274A12.26 12.26 0 0 0 .334 212.663a12.26 12.26 0 0 0 12.274-12.274A12.26 12.26 0 0 0 .334 188.115Zm.003 1.477c5.966 0 10.803 4.837 10.803 10.803 0 5.966-4.837 10.803-10.803 10.803-5.966 0-10.803-4.837-10.803-10.803 0-5.967 4.837-10.803 10.803-10.803ZM198.219 177c-2.548.231-5.035.836-7.312 1.834 1.501 3.2 1.389 6.514-.657 8.048-2.034 1.525-5.278.778-7.922-1.532a23.174 23.174 0 0 0-3.796 6.408c3.304 1.205 5.531 3.679 5.17 6.201-.361 2.523-3.193 4.272-6.702 4.502a23.46 23.46 0 0 0 1.849 7.214c1.74-.799 3.496-1.083 4.99-.873 1.273.183 2.337.685 3.043 1.627 1.544 2.06.742 5.343-1.639 8.005 1.906 1.597 4.123 2.875 6.503 3.811 1.204-3.303 3.678-5.53 6.201-5.169 2.524.361 4.272 3.193 4.502 6.701 2.547-.231 5.035-.835 7.312-1.834-1.54-3.222-1.393-6.6.668-8.145.942-.706 2.204-.881 3.476-.696 1.476.211 3.046 1.001 4.45 2.225a23.49 23.49 0 0 0 3.796-6.406c-3.304-1.204-5.531-3.677-5.17-6.201.361-2.524 3.19-4.274 6.699-4.504a23.23 23.23 0 0 0-1.846-7.214c-3.185 1.476-6.51 1.283-8.036-.751-1.533-2.045-.708-5.26 1.63-7.91-1.906-1.597-4.126-2.876-6.506-3.812-1.205 3.304-3.678 5.533-6.202 5.173-2.524-.361-4.271-3.193-4.501-6.702Zm2.115 9.29c7.776 0 14.099 6.323 14.099 14.099s-6.323 14.099-14.099 14.099-14.099-6.323-14.099-14.099 6.323-14.099 14.099-14.099Zm0 1.825a12.26 12.26 0 0 0-12.274 12.274 12.26 12.26 0 0 0 12.274 12.274 12.26 12.26 0 0 0 12.274-12.274 12.26 12.26 0 0 0-12.274-12.274Zm.003 1.477c5.966 0 10.803 4.837 10.803 10.803 0 5.966-4.837 10.803-10.803 10.803-5.966 0-10.803-4.837-10.803-10.803 0-5.967 4.837-10.803 10.803-10.803ZM198.219-23c-2.548.231-5.035.836-7.312 1.834 1.501 3.2 1.389 6.514-.657 8.048-2.034 1.525-5.278.778-7.922-1.532a23.177 23.177 0 0 0-3.796 6.408c3.304 1.205 5.531 3.679 5.17 6.201-.361 2.523-3.193 4.272-6.702 4.502a23.46 23.46 0 0 0 1.849 7.214c1.74-.799 3.496-1.083 4.99-.873 1.273.183 2.337.685 3.043 1.627 1.544 2.06.742 5.343-1.639 8.005 1.906 1.597 4.123 2.875 6.503 3.811 1.204-3.303 3.678-5.53 6.201-5.17 2.524.362 4.272 3.194 4.502 6.702 2.547-.23 5.035-.835 7.312-1.834-1.54-3.222-1.393-6.6.668-8.145.942-.706 2.204-.88 3.476-.696 1.476.211 3.046 1.001 4.45 2.225a23.492 23.492 0 0 0 3.796-6.406c-3.304-1.204-5.531-3.677-5.17-6.2.361-2.525 3.19-4.275 6.699-4.505a23.24 23.24 0 0 0-1.846-7.214c-3.185 1.476-6.51 1.283-8.036-.751-1.533-2.045-.708-5.26 1.63-7.91-1.906-1.597-4.126-2.876-6.506-3.812-1.205 3.303-3.678 5.533-6.202 5.173-2.524-.361-4.271-3.193-4.501-6.702Zm2.115 9.29c7.776 0 14.099 6.323 14.099 14.099s-6.323 14.099-14.099 14.099-14.099-6.323-14.099-14.1c0-7.775 6.323-14.098 14.099-14.098Zm0 1.825A12.26 12.26 0 0 0 188.06.389a12.26 12.26 0 0 0 12.274 12.274A12.26 12.26 0 0 0 212.608.39a12.26 12.26 0 0 0-12.274-12.274Zm.003 1.477c5.966 0 10.803 4.837 10.803 10.803 0 5.966-4.837 10.803-10.803 10.803-5.966 0-10.803-4.837-10.803-10.803 0-5.967 4.837-10.803 10.803-10.803Z"/>
  </g>
</svg>
