<svg xmlns="http://www.w3.org/2000/svg" fill="none" viewBox="0 0 91 91">
  <path fill="#000" d="m21.577 70.28 18.246-47.765h12.905L70.974 70.28h-12.46l-4.302-10.829H38.265L34.038 70.28h-12.46Zm18.32-19.655H52.58L46.2 34.011l-6.304 16.614Z"/>
  <path fill="#000" fill-opacity=".4" fill-rule="evenodd" d="M18.887 66.297c.31.004.78-.036 1.045-.088.321-.063 2.63-1.336 6.916-3.814 3.538-2.046 6.478-3.707 6.532-3.692.054.015.927 1.469 1.941 3.23 1.661 2.886 1.882 3.221 2.241 3.397.343.169.686.182 2.482.098 1.496-.07 2.183-.152 2.433-.29.265-.146.607-.595 1.426-1.87 1.1-1.714 1.263-2.07 1.202-2.623-.02-.173-.494-1.12-1.054-2.105l-1.02-1.79 15.35-8.906c8.441-4.898 15.424-8.994 15.518-9.1.222-.253 3.581-9.74 3.61-10.196.03-.45-.402-1.2-.805-1.4-.408-.203-10.272-2.025-10.601-1.959-.139.028-7.164 4.054-15.61 8.945l-15.36 8.894-.994-1.712c-.547-.942-1.081-1.79-1.186-1.887-.383-.35-1.023-.414-2.948-.296-1.053.065-2.043.16-2.2.21-.402.131-.699.507-1.79 2.27-.768 1.244-.963 1.63-.985 1.954-.023.347.228.849 1.798 3.591 1.003 1.753 1.813 3.232 1.8 3.286-.014.053-2.916 1.778-6.45 3.831-4.252 2.471-6.534 3.86-6.745 4.104a4.86 4.86 0 0 0-1.064 4.22c.148.669.814 1.854 1.316 2.34.862.835 2.068 1.347 3.202 1.359Zm-.954-3.518c-.59-.466-.734-1.332-.335-1.997.13-.218.523-.523 1.091-.85l.887-.509.765 1.33.765 1.33-.822.488c-1.148.682-1.69.73-2.351.208Zm5.646-5.68 1.355-.789.77 1.332.768 1.332-1.355.789-1.355.788-.77-1.332-.768-1.332 1.355-.788Zm10.151-4.095-5.316-9.265.436-.699.436-.699.893-.04.893-.04 5.332 9.27 5.332 9.27-.456.707-.457.706-.785.048c-.432.026-.832.038-.888.027-.057-.011-2.495-4.19-5.42-9.285Zm-5.395 3.071-.745-1.3 1.355-.786 1.354-.785.767 1.332.766 1.331-1.322.77c-.728.423-1.347.762-1.376.754-.03-.008-.39-.6-.8-1.316ZM40.63 52.59l-.745-1.301 12.912-7.486c10.672-6.186 12.94-7.541 13.072-7.81.498-1.014-.112-2.205-1.203-2.35-.49-.064-.56-.025-13.425 7.425l-12.933 7.49-.783-1.367-.783-1.366 15.014-8.703L66.77 28.42l3.476.642c1.911.353 3.496.678 3.521.722.025.043-.487 1.583-1.138 3.422l-1.184 3.342-14.982 8.686c-8.24 4.777-15.006 8.68-15.035 8.671-.028-.008-.387-.6-.797-1.315Z" clip-rule="evenodd"/>
  <path fill="#000" d="M0 0h5v91H0zm86 0h5v91h-5z"/>
  <path fill="#000" d="M0 0h91v5H0zm0 86h91v5H0z"/>
</svg>
