<svg xmlns="http://www.w3.org/2000/svg" fill="none" viewBox="0 0 333 103">
  <path fill="#000" fill-opacity=".4" fill-rule="evenodd" d="M135.094 17.765c.251.148.652.337.892.419.291.1 2.768.148 7.421.145 3.841-.002 7.014.027 7.051.065.036.038.064 1.631.062 3.54-.004 3.13.018 3.506.227 3.819.201.298.473.47 1.974 1.245 1.251.646 1.848.902 2.117.907.284.006.773-.198 2.039-.852 1.701-.877 2-1.09 2.21-1.57.066-.15.125-1.143.131-2.208l.012-1.935 16.676-.037c9.172-.02 16.78-.071 16.906-.114.3-.102 7.492-6.244 7.73-6.602.234-.352.236-1.165.002-1.517-.237-.357-7.408-6.474-7.708-6.575-.126-.043-7.734-.068-16.907-.056l-16.679.022-.005-1.86c-.003-1.024-.038-1.966-.079-2.094-.146-.464-.638-.818-2.26-1.626-.887-.442-1.737-.83-1.889-.862-.389-.083-.807.084-2.523 1.007-1.209.65-1.549.873-1.72 1.126-.182.272-.213.798-.224 3.768-.007 1.898-.043 3.482-.079 3.52-.036.036-3.209.076-7.05.087-4.621.013-7.13.071-7.417.17a4.563 4.563 0 0 0-2.848 2.934c-.195.614-.21 1.892-.03 2.523.31 1.086 1.051 2.068 1.968 2.61Zm.877-3.312c-.261-.656.028-1.43.666-1.783.208-.116.671-.18 1.287-.178l.961.002-.002 1.442-.003 1.441-.898.012c-1.255.015-1.718-.2-2.011-.936Zm7.264-1.97 1.473-.005v2.891l-1.473.005-1.473.005v-1.446l-.001-1.445 1.474-.005Zm10.186 1.438.026-10.039.683-.364.684-.364.745.387.746.388-.016 10.05-.016 10.049-.704.36-.704.36-.661-.33c-.364-.18-.695-.359-.736-.395-.04-.035-.062-4.582-.047-10.102Zm-5.835-.036.005-1.409 1.472-.003 1.472-.002-.003 1.444-.002 1.444-1.437.005c-.791.002-1.455-.012-1.475-.033-.02-.02-.034-.672-.032-1.446Zm11.645 2.94.005-1.408 14.026-.025c11.592-.02 14.075-.057 14.309-.214.881-.592.944-1.847.124-2.477-.368-.283-.444-.285-14.414-.266l-14.045.018.005-1.48.005-1.48 16.308-.027 16.308-.028 2.526 2.155c1.39 1.186 2.527 2.194 2.527 2.242 0 .047-1.14 1.06-2.534 2.25l-2.534 2.165-16.275.029c-8.951.016-16.29.012-16.31-.008-.02-.02-.033-.67-.031-1.445Z" clip-rule="evenodd"/>
  <path fill="#000" d="m15.157 87.35 19.448-50.913h13.756L67.81 87.35H54.528l-4.585-11.543H32.945L28.439 87.35H15.157ZM34.684 66.4h13.52l-6.8-17.71-6.72 17.71Zm56.102 21.741c-6.536 0-11.78-1.607-15.733-4.822-3.953-3.268-5.93-8.17-5.93-14.705 0-5.956 1.634-10.7 4.902-14.23 3.268-3.532 8.17-5.298 14.705-5.298 5.956 0 10.568 1.529 13.836 4.586 3.267 3.056 4.901 7.168 4.901 12.333v6.72H80.903c.58 2.477 1.924 4.216 4.032 5.218 2.161.948 5.087 1.423 8.776 1.423 2.055 0 4.137-.185 6.246-.554 2.161-.369 3.953-.843 5.376-1.423v8.301c-1.792.844-3.927 1.45-6.404 1.819-2.477.421-5.192.632-8.143.632Zm-9.883-22.769H96.4v-1.66c0-1.845-.553-3.294-1.66-4.348-1.107-1.107-2.978-1.66-5.614-1.66-3.056 0-5.191.632-6.403 1.897-1.212 1.212-1.819 3.136-1.819 5.771Zm48.454 22.769c-4.639 0-8.064-1.186-10.278-3.558-2.161-2.371-3.241-5.639-3.241-9.803V59.522h-5.06v-9.645h5.06V42.05l12.728-3.4v11.227h9.092l-.554 9.645h-8.538V73.91c0 1.792.448 3.056 1.344 3.794.896.686 2.24 1.028 4.032 1.028 1.528 0 3.083-.263 4.664-.79v8.617c-2.477 1.054-5.56 1.581-9.249 1.581Zm14.153-.791V34.066h12.728v18.579c1.424-1.054 3.189-1.898 5.297-2.53 2.109-.685 4.375-1.028 6.799-1.028 5.008 0 8.671 1.186 10.99 3.558 2.371 2.372 3.557 6.008 3.557 10.91V87.35h-12.728V64.424c0-2.161-.448-3.69-1.344-4.586-.896-.896-2.504-1.344-4.823-1.344-1.37 0-2.767.316-4.19.949-1.423.632-2.609 1.423-3.558 2.372V87.35H143.51Zm66.636.791c-6.535 0-11.78-1.607-15.733-4.822-3.953-3.268-5.929-8.17-5.929-14.705 0-5.956 1.634-10.7 4.902-14.23 3.267-3.532 8.169-5.298 14.705-5.298 5.955 0 10.567 1.529 13.835 4.586 3.268 3.056 4.901 7.168 4.901 12.333v6.72h-26.563c.579 2.477 1.923 4.216 4.032 5.218 2.161.948 5.086 1.423 8.775 1.423 2.056 0 4.138-.185 6.246-.554 2.161-.369 3.953-.843 5.376-1.423v8.301c-1.792.844-3.927 1.45-6.404 1.819-2.477.421-5.191.632-8.143.632Zm-9.882-22.769h15.495v-1.66c0-1.845-.553-3.294-1.66-4.348-1.107-1.107-2.978-1.66-5.613-1.66-3.057 0-5.192.632-6.404 1.897-1.212 1.212-1.818 3.136-1.818 5.771Zm44.579 22.769c-4.111 0-7.063-.896-8.855-2.688-1.792-1.792-2.688-4.664-2.688-8.617V34.065h12.729v41.506c0 1.212.237 2.055.711 2.53.527.421 1.292.632 2.293.632 1.423 0 2.688-.184 3.795-.553v8.617a18.828 18.828 0 0 1-3.637 1.028c-1.159.21-2.609.316-4.348.316Zm12.777-.791V49.878h11.78l.395 3.32c1.687-1.212 3.584-2.187 5.693-2.925 2.108-.79 4.374-1.186 6.799-1.186 2.53 0 4.506.395 5.929 1.186a8.001 8.001 0 0 1 3.32 3.162c1.74-1.265 3.69-2.292 5.851-3.083 2.214-.843 4.796-1.265 7.748-1.265 4.374 0 7.589 1.133 9.645 3.4 2.055 2.266 3.083 5.718 3.083 10.356v24.509h-12.57V64.344c0-2.055-.448-3.53-1.344-4.427-.844-.949-2.24-1.423-4.19-1.423a8.517 8.517 0 0 0-3.558.79 7.743 7.743 0 0 0-2.925 2.056c.105.58.158 1.133.158 1.66.053.528.079 1.16.079 1.898V87.35h-11.859V64.186c0-1.897-.342-3.32-1.028-4.269-.632-.949-1.871-1.423-3.715-1.423a7.182 7.182 0 0 0-3.716 1.028 17.658 17.658 0 0 0-3.162 2.372V87.35H257.62ZM0 11.998h120v5H0z"/>
  <path fill="#000" d="M0 11.998h5v91H0z"/>
  <path fill="#000" d="M0 97.998h333v5H0z"/>
  <path fill="#000" d="M328 11.998h5v91h-5z"/>
  <path fill="#000" d="M213 11.998h120v5H213z"/>
</svg>
