<svg xmlns="http://www.w3.org/2000/svg" fill="none" viewBox="0 0 68 28">
  <path fill="currentColor" fill-rule="evenodd" d="M2.094 17.765c.25.148.652.337.892.419.291.1 2.768.148 7.42.145 3.842-.002 7.015.027 7.052.065.037.038.065 1.631.062 3.54-.004 3.13.018 3.506.227 3.819.2.298.473.47 1.974 1.245 1.25.646 1.848.902 2.117.907.284.006.773-.198 2.04-.852 1.7-.877 2-1.09 2.21-1.57.065-.15.124-1.143.13-2.208l.012-1.935 16.676-.037c9.172-.02 16.78-.071 16.906-.114.3-.102 7.492-6.244 7.73-6.602.234-.352.236-1.165.002-1.517-.237-.357-7.408-6.474-7.708-6.575-.126-.043-7.734-.068-16.907-.056l-16.679.022-.005-1.86c-.003-1.024-.038-1.966-.079-2.094-.146-.464-.638-.818-2.26-1.626C23.02.44 22.17.051 22.017.02c-.389-.083-.807.084-2.523 1.007-1.21.65-1.55.873-1.72 1.126-.182.272-.213.798-.224 3.768-.007 1.898-.043 3.482-.079 3.52-.036.036-3.209.076-7.05.087-4.62.013-7.13.071-7.417.17a4.567 4.567 0 0 0-2.848 2.934c-.195.614-.21 1.892-.03 2.523.31 1.086 1.05 2.068 1.968 2.61Zm.877-3.312c-.26-.656.028-1.43.666-1.783.208-.116.671-.18 1.287-.178l.961.002-.002 1.442-.003 1.441-.898.012c-1.255.015-1.718-.2-2.01-.936Zm7.264-1.97 1.473-.005v2.891l-1.473.005-1.473.005v-2.891l1.473-.005ZM20.42 13.92l.026-10.039.684-.364.683-.364.745.387.746.388-.016 10.05-.016 10.049-.704.36-.704.36-.661-.33c-.364-.18-.695-.359-.736-.395-.04-.035-.062-4.582-.047-10.102Zm-5.835-.036.005-1.409 1.472-.003 1.472-.002-.003 1.444-.002 1.444-1.438.005c-.79.002-1.454-.012-1.474-.033-.02-.02-.034-.672-.032-1.446Zm11.645 2.94.005-1.408 14.026-.025c11.592-.02 14.075-.057 14.309-.214.881-.592.944-1.847.124-2.477-.368-.283-.444-.285-14.414-.266l-14.045.018.005-1.48.005-1.48 16.308-.027 16.307-.028 2.527 2.155c1.39 1.186 2.527 2.194 2.527 2.242 0 .047-1.14 1.06-2.534 2.25l-2.534 2.165-16.275.029c-8.95.016-16.29.012-16.31-.008-.02-.02-.033-.67-.03-1.445Z" clip-rule="evenodd"/>
</svg>
